<svg height="1054" width="720" xmlns="http://www.w3.org/2000/svg">
<rect height="1054" fill="#555" width="720"></rect>
<text fill="#7f7" font-family="Courier New" font-size="12" xml:space="preserve">
<tspan x="10" y="26">15 megabytes installed</tspan>
<tspan x="10" y="42"></tspan>
<tspan x="10" y="58">node_modules</tspan>
<tspan x="10" y="74">└─┬ memdb-server@0.5.7 </tspan>
<tspan x="10" y="90">  ├─┬ async-lock@0.3.9 </tspan>
<tspan x="10" y="106">  │ └── q@1.4.1 </tspan>
<tspan x="10" y="122">  ├── bluebird@2.9.34 </tspan>
<tspan x="10" y="138">  ├─┬ fs-extra@0.23.1 </tspan>
<tspan x="10" y="154">  │ ├── graceful-fs@4.1.11 </tspan>
<tspan x="10" y="170">  │ ├── jsonfile@2.4.0 </tspan>
<tspan x="10" y="186">  │ ├── path-is-absolute@1.0.1 </tspan>
<tspan x="10" y="202">  │ └─┬ rimraf@2.6.1 </tspan>
<tspan x="10" y="218">  │   └─┬ glob@7.1.1 </tspan>
<tspan x="10" y="234">  │     ├── fs.realpath@1.0.0 </tspan>
<tspan x="10" y="250">  │     ├─┬ inflight@1.0.6 </tspan>
<tspan x="10" y="266">  │     │ └── wrappy@1.0.2 </tspan>
<tspan x="10" y="282">  │     ├─┬ minimatch@3.0.3 </tspan>
<tspan x="10" y="298">  │     │ └─┬ brace-expansion@1.1.7 </tspan>
<tspan x="10" y="314">  │     │   ├── balanced-match@0.4.2 </tspan>
<tspan x="10" y="330">  │     │   └── concat-map@0.0.1 </tspan>
<tspan x="10" y="346">  │     └── once@1.4.0 </tspan>
<tspan x="10" y="362">  ├── heapdump@0.3.9 </tspan>
<tspan x="10" y="378">  ├─┬ hiredis@0.4.1 </tspan>
<tspan x="10" y="394">  │ ├── bindings@1.2.1 </tspan>
<tspan x="10" y="410">  │ └── nan@2.6.2 </tspan>
<tspan x="10" y="426">  ├── lodash@3.10.1 </tspan>
<tspan x="10" y="442">  ├─┬ memdb-logger@0.1.7 </tspan>
<tspan x="10" y="458">  │ └─┬ log4js@0.6.21 </tspan>
<tspan x="10" y="474">  │   ├── async@0.2.10 </tspan>
<tspan x="10" y="490">  │   ├── readable-stream@1.0.34 </tspan>
<tspan x="10" y="506">  │   └── semver@1.1.4 </tspan>
<tspan x="10" y="522">  ├── minimist@1.1.3 </tspan>
<tspan x="10" y="538">  ├─┬ mkdirp@0.5.1 </tspan>
<tspan x="10" y="554">  │ └── minimist@0.0.8 </tspan>
<tspan x="10" y="570">  ├─┬ mongodb@2.0.39 </tspan>
<tspan x="10" y="586">  │ ├── es6-promise@2.1.1 </tspan>
<tspan x="10" y="602">  │ ├─┬ mongodb-core@1.2.6 </tspan>
<tspan x="10" y="618">  │ │ └─┬ kerberos@0.0.23 </tspan>
<tspan x="10" y="634">  │ │   └── nan@2.5.1 </tspan>
<tspan x="10" y="650">  │ └─┬ readable-stream@1.0.31 </tspan>
<tspan x="10" y="666">  │   ├── core-util-is@1.0.2 </tspan>
<tspan x="10" y="682">  │   ├── inherits@2.0.3 </tspan>
<tspan x="10" y="698">  │   ├── isarray@0.0.1 </tspan>
<tspan x="10" y="714">  │   └── string_decoder@0.10.31 </tspan>
<tspan x="10" y="730">  ├─┬ mongoose@4.1.5 </tspan>
<tspan x="10" y="746">  │ ├── async@0.9.0 </tspan>
<tspan x="10" y="762">  │ ├── bson@0.4.23 </tspan>
<tspan x="10" y="778">  │ ├── hooks-fixed@1.1.0 </tspan>
<tspan x="10" y="794">  │ ├── kareem@1.0.1 </tspan>
<tspan x="10" y="810">  │ ├─┬ mongodb@2.0.42 </tspan>
<tspan x="10" y="826">  │ │ ├── mongodb-core@1.2.10 </tspan>
<tspan x="10" y="842">  │ │ └── readable-stream@1.0.31 </tspan>
<tspan x="10" y="858">  │ ├── mpath@0.1.1 </tspan>
<tspan x="10" y="874">  │ ├── mpromise@0.5.4 </tspan>
<tspan x="10" y="890">  │ ├─┬ mquery@1.6.3 </tspan>
<tspan x="10" y="906">  │ │ ├── bluebird@2.9.26 </tspan>
<tspan x="10" y="922">  │ │ └─┬ debug@2.2.0 </tspan>
<tspan x="10" y="938">  │ │   └── ms@0.7.1 </tspan>
<tspan x="10" y="954">  │ ├── ms@0.1.0 </tspan>
<tspan x="10" y="970">  │ ├── muri@1.0.0 </tspan>
<tspan x="10" y="986">  │ ├── regexp-clone@0.0.1 </tspan>
<tspan x="10" y="1002">  │ └── sliced@0.0.5 </tspan>
<tspan x="10" y="1018">  ├── node-uuid@1.4.8 </tspan>
<tspan x="10" y="1034">  └── redis@0.12.1</tspan>
</text>
</svg>
